# xmcd
#
# Track frame offsets:
#  183
#  15183
#  31853
#  44758
#  62490
#  74493
#  86920
#  97618
#  111800
#  126663
#  143153
#  156958
#  176900
#  190753
#  211503
#  222273
#  238373
#  250658
#
# Disc length: 3465 seconds
#
# Revision: 0
# Processed by: cddbd v1.5.2PL0 Copyright (c) Steve Scherf et al.
# Submitted via: Collectorz.com_Music_Collector 6.11
#
DISCID=fe0d8712
DTITLE=Suzanne Prentice - The Very Best of Suzanne Prentice
DYEAR=1990
DGENRE=Country
TTITLE0=One Day At A Time
TTITLE1=The Other Side Of Me
TTITLE2=Womanhood
TTITLE3=Dreamin' My Dreams
TTITLE4=Sweet Country Music
TTITLE5=I Saw A Man
TTITLE6=Love Is Like A Butterfly
TTITLE7=Teddy Bear Song
TTITLE8=There's Dust On Mother's Bible
TTITLE9=When I Dream
TTITLE10=Lay It All Out
TTITLE11=Amazing Grace
TTITLE12=Talking In Your Sleep
TTITLE13=How Great Thou Art
TTITLE14=The Wedding Song
TTITLE15=Daddy's Waiting
TTITLE16=The Old Rugged Cross
TTITLE17=Funny Face
EXTD=
EXTT0=
EXTT1=
EXTT2=
EXTT3=
EXTT4=
EXTT5=
EXTT6=
EXTT7=
EXTT8=
EXTT9=
EXTT10=
EXTT11=
EXTT12=
EXTT13=
EXTT14=
EXTT15=
EXTT16=
EXTT17=
PLAYORDER=
